<?xml version="1.0" encoding="utf-8"?>
<!-- Generator: Adobe Illustrator 25.3.1, SVG Export Plug-In . SVG Version: 6.00 Build 0)  -->
<svg version="1.1"
	 id="svg2" inkscape:version="0.48.2 r9819" sodipodi:docname="New document 1" xmlns:cc="http://creativecommons.org/ns#" xmlns:dc="http://purl.org/dc/elements/1.1/" xmlns:inkscape="http://www.inkscape.org/namespaces/inkscape" xmlns:rdf="http://www.w3.org/1999/02/22-rdf-syntax-ns#" xmlns:sodipodi="http://sodipodi.sourceforge.net/DTD/sodipodi-0.dtd" xmlns:svg="http://www.w3.org/2000/svg"
	 xmlns="http://www.w3.org/2000/svg" xmlns:xlink="http://www.w3.org/1999/xlink" x="0px" y="0px" viewBox="0 0 1246.3 254.9"
	 style="enable-background:new 0 0 1246.3 254.9;" xml:space="preserve">
<style type="text/css">
	.st0{fill:#784499;}
</style>
<sodipodi:namedview  bordercolor="#666666" borderopacity="1.0" fit-margin-bottom="0.5" fit-margin-left="0.5" fit-margin-right="0.5" fit-margin-top="0.5" id="base" inkscape:current-layer="g2993" inkscape:cx="811.13371" inkscape:cy="110.58252" inkscape:document-units="px" inkscape:pageopacity="0.0" inkscape:pageshadow="2" inkscape:window-height="1028" inkscape:window-maximized="1" inkscape:window-width="1920" inkscape:window-x="-8" inkscape:window-y="-8" inkscape:zoom="0.7" pagecolor="#ffffff" showgrid="false">
	</sodipodi:namedview>
<path id="path3063" inkscape:connector-curvature="0" class="st0" d="M835.9,206.1l2.7,44c-5.2,1.5-20.9,4.6-42.3,4.6
	c-43.9,0-67.3-18.5-67.3-63.6c0-35.4,0.7-74.1,1-95.4h-22.8c0.4-9.6-0.2-23.3,0-33.4c34.2-5.7,44.9-24.9,49.9-62.3h37.6
	c-1.3,15.4-2.5,37.8-2.5,52.9h39.9v42.8h-40.5v77c0,29.8,6,38,26.6,38C824.5,210.6,832,208.6,835.9,206.1L835.9,206.1z
	 M1045.5,158.3c0-16.7,0.3-39,0.3-39c0-50-22-72.5-84-72.5c-34.8,0-59.7,6.1-98.6,6.1c2.2,35.1,2.3,78.6,2.1,105.4
	c0.2,27.4-0.9,76.3-2.1,92.1H930c-1.5-15.8-2.9-61.4-2.7-92.1c0-17.5,0.2-38.7,0.9-67.1c6.6-2.3,15.1-4,24.2-4
	c23.4,0,30.9,11,30.9,41c0,0,0.4,18.9,0.4,30c0,27.4-0.9,76.3-2.1,92.1h66.7C1046.7,234.6,1045.3,189,1045.5,158.3L1045.5,158.3z
	 M599.6,167.1c-7.2,0-19.4-0.2-25.5-0.5l0,1.4c0,28.3,18.6,46.3,53,46.3c20.7,0,39.7-6.4,53.2-14.3l2.4,44.2
	c-13.7,6.4-39.8,10.8-65.6,10.8c-69.9,0-103.5-23.9-109.3-88.8c-8-0.4-20-0.8-36.4-0.9c-0.4,11.4-0.9,21.5-0.9,29.9
	c0,15.9,0.1,39.2,2.9,55.3c-38.3,0-68,4.3-98.1,4.3c-57.1,0-77.1-23.7-77.1-64c0-39.1,32.2-60.2,101.9-60.2c2.7,0,7.6,0.1,9.6,0.1
	l0-4.1c0-27.7-8.5-39.2-36.5-39.2c-19.9,0-40.8,7.1-54.8,14.6L316,57.7c16.1-6.5,42.4-11,72.3-11c61.1,0,84.1,20.1,84.1,75.5
	c0,3.1,0,6-0.1,9c14.9,0.1,25.8,0.3,35.8,0.9c6.2-54.7,33.5-85.2,101.9-85.2c56.5,0,82.4,23.8,82.4,59.5
	C692.5,147.8,661,167.1,599.6,167.1L599.6,167.1z M409.1,213.9c-1-13.4-0.6-32.8-0.5-49.4c-2.3-0.2-5.6-0.2-8.3-0.2
	c-29,0-40.5,9.7-40.5,26.9c0,17.8,9.1,24.8,30.3,24.8C396.6,216.1,404.1,215.3,409.1,213.9z M592.1,133.4c26.8,0,39.7-9,39.7-28.3
	c0-13.7-9.3-21.3-23.8-21.3c-25.4,0-34.2,20.3-34.2,48.1l0,1C578.9,133.3,585.7,133.4,592.1,133.4z M1246.3,250.4
	c-38.3,0-68,4.3-98.1,4.3c-57.1,0-77.1-23.7-77.1-64c0-39.1,32.2-60.2,101.9-60.2c2.7,0,7.6,0.1,9.6,0.1l0-4.1
	c0-27.7-8.5-39.2-36.5-39.2c-19.9,0-40.8,7.1-54.8,14.6l-2.4-44.2c16.1-6.5,42.4-11,72.3-11c61.1,0,84.1,20.1,84.1,75.5
	c0,29.7-1.9,55.1-1.9,73C1243.4,211,1243.5,234.3,1246.3,250.4z M1182,213.9c-1-13.4-0.6-32.8-0.5-49.4c-2.3-0.2-5.6-0.2-8.3-0.2
	c-29,0-40.5,9.7-40.5,26.9c0,17.8,9.1,24.8,30.3,24.8C1169.5,216.1,1177,215.3,1182,213.9"/>
<path class="st0" d="M54.7,35.7c5.5-5.5,13.5-9.2,22.1-9.2c8.6,0,17.2,3.1,23.4,9.2c12.3,12.3,25.2,25.2,37.5,37.5
	C150.1,60.9,163,48,175.3,35.7c5.5-5.5,14.1-9.2,22.1-9.2c8.6,0,16.6,3.1,22.8,9.2c15.4,15.4,30.8,30.8,46.1,46.1
	c6.2,6.2,9.8,15.4,9.2,24c-0.6,8-3.7,15.4-9.2,20.9c-43.1,42.4-85.5,85.5-128.5,127.9l0,0C94.7,212.2,52.3,169.2,9.2,126.7
	c-5.5-5.5-8.6-12.9-9.2-20.3v-4.9c0.6-7.4,3.7-14.8,9.2-20.3C24.6,66.5,39.4,51.1,54.7,35.7z"/>
</svg>
