<svg version="1.1" id="Logo" x="0px" y="0px" xml:space="preserve" sodipodi:docname="Apex-Header.svg" inkscape:version="1.2 (dc2aedaf03, 2022-05-15)" xmlns:inkscape="http://www.inkscape.org/namespaces/inkscape" xmlns:sodipodi="http://sodipodi.sourceforge.net/DTD/sodipodi-0.dtd" xmlns="http://www.w3.org/2000/svg" xmlns:svg="http://www.w3.org/2000/svg" viewBox="0 0 537.07 234.63"><defs id="defs15"/><sodipodi:namedview id="namedview13" pagecolor="#505050" bordercolor="#eeeeee" borderopacity="1" inkscape:showpageshadow="0" inkscape:pageopacity="0" inkscape:pagecheckerboard="0" inkscape:deskcolor="#505050" showgrid="false" inkscape:zoom="2.4903423" inkscape:cx="271.24785" inkscape:cy="117.45373" inkscape:window-width="1920" inkscape:window-height="1001" inkscape:window-x="-9" inkscape:window-y="-9" inkscape:window-maximized="1" inkscape:current-layer="g10"/>
<style type="text/css" id="style2">
	.st0{fill:#44B8F3;}
	.st1{fill:#1A3673;}
</style><style class="darkreader darkreader--sync" media="screen"/>
<g id="g10">
	<g id="g6">
		<polygon class="st0" points="51.803246,51.429924 40.723766,40.351822 81.075775,0 121.42765,40.352444 110.34793,51.430374 81.075531,22.159092 " id="polygon4"/>
	</g>
	<path class="st1" d="m 0.0010094,61.71738 59.1548466,4.58e-4 -1.86e-4,16.677296 -41.338047,-3.2e-4 -2.23e-4,20.242103 35.63726,2.75e-4 -1.87e-4,16.820178 -35.63726,-2.8e-4 -2.29e-4,20.80998 41.338051,3.2e-4 -1.87e-4,16.82018 L 0,153.08711 Z m 72.3655526,-6.700401 17.391807,1.37e-4 -9.38e-4,85.059844 -1.45e-4,13.01085 -17.391808,-1.4e-4 z m 28.022098,64.001901 c 2.3e-4,-19.952672 14.82759,-36.204854 34.49824,-36.204709 19.52777,1.52e-4 34.35112,15.109489 34.35089,34.780049 -1e-5,2.13961 -0.14293,4.56134 -0.42871,5.70442 l -50.6,-3.9e-4 c 1.7072,9.54768 8.97966,16.39158 19.52758,16.39168 6.84021,4e-5 12.68393,-2.99318 16.67746,-7.12583 l 8.97971,11.83025 c -5.13298,5.98649 -14.82364,10.69064 -26.37177,10.69055 -21.23873,-1.5e-4 -36.63362,-16.25258 -36.6334,-36.06602 z m 18.10265,-6.69716 32.92976,2.6e-4 c -1.99665,-9.69425 -8.12604,-14.684292 -16.25223,-14.684353 -8.69406,-6.9e-5 -14.6807,5.990083 -16.67753,14.684093 z m 124.76658,-27.509975 -24.66144,68.277065 -22.52104,-1.7e-4 -24.80281,-68.277452 19.10278,1.52e-4 17.38754,52.7395 17.67817,-52.739232 z m 54.92454,60.865955 c -4.99008,5.84362 -11.97323,9.40836 -20.81018,9.4083 -18.10257,-1.4e-4 -32.78671,-14.82736 -32.78647,-36.066 2.3e-4,-20.667095 13.82737,-36.20486 32.78727,-36.204715 8.97982,6.8e-5 15.96289,3.279159 20.80996,8.837074 l 10e-5,-6.840179 17.53103,1.29e-4 -7.6e-4,68.277261 -17.53104,-1.4e-4 z m 3.1e-4,-26.80017 c 1.2e-4,-10.97287 -7.55444,-19.670621 -17.95947,-19.670705 -10.54795,-7.6e-5 -18.24558,8.697555 -18.24567,19.670425 -1.2e-4,10.97652 7.6973,19.8135 18.24521,19.81358 10.40506,9e-5 17.95981,-8.83677 17.95993,-19.8133 z m 48.63165,34.21227 -17.39178,-1.2e-4 7.6e-4,-68.277264 17.39178,1.37e-4 -6e-5,6.697297 c 4.27564,-5.557847 10.83377,-8.693947 19.2421,-8.693879 15.8237,1.22e-4 25.94284,11.119614 25.94266,28.936329 l -4.6e-4,41.33785 -17.38815,-1.4e-4 4.2e-4,-38.76957 c 1.3e-4,-9.26557 -5.41848,-15.112921 -13.82681,-15.112989 -8.69772,-6.9e-5 -13.96991,5.847209 -13.97003,15.112779 z m 91.17362,-53.881739 c -11.40158,-8.4e-5 -19.09922,8.697549 -19.09934,19.670419 -1.2e-4,10.97653 7.84021,19.81351 18.95603,19.81358 6.98675,6e-5 12.54467,-2.42161 16.82031,-6.69716 l 8.83682,12.82679 c -5.4151,5.99015 -15.24863,10.26565 -26.08234,10.26556 -20.24218,-1.5e-4 -35.92285,-16.25258 -35.9226,-36.06603 2.1e-4,-19.952662 15.68121,-36.204837 35.63763,-36.204684 11.68735,9.2e-5 20.95294,3.993622 26.93942,10.262314 l -9.97653,12.40164 c -4.2792,-4.13272 -9.40841,-6.272375 -16.1094,-6.272429 z m 30.22567,19.813679 c 2.2e-4,-19.952663 14.82392,-36.204853 34.49823,-36.204701 19.52778,1.53e-4 34.35114,15.109482 34.3509,34.780041 0,2.13962 -0.14295,4.56134 -0.42872,5.70443 l -50.59997,-3.9e-4 c 1.70718,9.54768 8.97964,16.39158 19.52759,16.39167 6.84021,5e-5 12.6839,-2.99317 16.67743,-7.12582 l 8.97973,11.83025 c -5.13299,5.98649 -14.82367,10.69064 -26.37179,10.69055 -21.23871,-1.7e-4 -36.63361,-16.25258 -36.6334,-36.06603 z m 18.10267,-6.69715 32.92974,2.5e-4 c -1.99664,-9.69424 -8.12603,-14.684284 -16.25222,-14.684352 -8.69407,-6.1e-5 -14.6807,5.990092 -16.67752,14.684102 z m -182.61823,95.28507 -25.19727,-5.3e-4 -6.1e-4,25.67058 -11.92782,-2.5e-4 10e-4,-61.16937 11.9278,2.6e-4 -5.8e-4,24.33382 25.19729,5.3e-4 5.8e-4,-24.33383 12.02591,2.6e-4 -0.001,61.16936 -12.02594,-2.5e-4 z m 19.6051,2.86278 c 3.1e-4,-13.35772 9.92447,-24.23796 23.09583,-24.23768 13.07324,2.7e-4 22.99692,10.11566 22.99661,23.28453 -6e-5,1.4324 -0.0957,3.05368 -0.28708,3.81894 l -33.87518,-7.2e-4 c 1.14285,6.39192 6.01147,10.97377 13.073,10.97392 4.57931,9e-5 8.49154,-2.00372 11.1651,-4.77038 l 6.01156,7.92009 c -3.43643,4.00773 -9.92407,7.15693 -17.65521,7.15678 -14.21869,-3.1e-4 -24.52496,-10.88095 -24.52463,-24.14548 z m 12.11923,-4.4834 22.04548,4.8e-4 c -1.33661,-6.49004 -5.44001,-9.83078 -10.88025,-9.83089 -5.82044,-1.2e-4 -9.82834,4.01006 -11.16523,9.83041 z m 75.74589,22.33152 c -3.34076,3.91208 -8.01581,6.29852 -13.93189,6.2984 -12.11911,-2.6e-4 -21.94958,-9.92678 -21.94925,-24.14543 3.4e-4,-13.83602 9.25733,-24.23798 21.95041,-24.23771 6.01172,1.3e-4 10.68665,2.19544 13.93158,5.91636 l 9e-5,-4.57932 11.73651,2.4e-4 -0.001,45.70963 -11.73648,-2.4e-4 z m 4.2e-4,-17.94193 c 1.5e-4,-7.34602 -5.05731,-13.16897 -12.02316,-13.16913 -7.06152,-1.3e-4 -12.21494,5.8226 -12.21509,13.16861 -1.8e-4,7.34848 5.15296,13.26464 12.21445,13.26479 6.96588,1.4e-4 12.02362,-5.9158 12.0238,-13.26427 z m 21.63028,-42.75116 11.64328,2.5e-4 -10e-4,59.13911 -1.5e-4,6.51636 -11.64328,-2.5e-4 z m 19.44022,19.94626 8.1113,1.7e-4 2.7e-4,-11.83212 11.64328,2.4e-4 -2.7e-4,11.83212 12.40365,2.6e-4 -2.4e-4,10.30649 -12.31046,-2.6e-4 -4.6e-4,19.3719 c -9e-5,4.29479 1.81492,6.39192 5.24878,6.392 2.09958,5e-5 4.19916,-0.95404 5.34464,-2.28831 l 5.24872,8.68287 c -2.57791,2.48215 -6.8703,4.58162 -12.50186,4.5815 -9.25675,-2e-4 -15.1727,-5.82317 -15.17243,-16.98813 l 4.6e-4,-19.75207 -8.01563,-1.7e-4 z m 54.52402,45.71075 -11.64332,-2.4e-4 0.002,-65.65546 11.64331,2.5e-4 -5.8e-4,24.42947 c 2.86246,-3.72076 7.25296,-5.82023 12.88205,-5.82013 10.59351,2.3e-4 17.36786,7.44449 17.36762,19.37227 l -6.8e-4,27.67449 -11.6408,-2.5e-4 6.1e-4,-25.95511 c 1.2e-4,-6.20302 -3.62744,-10.1177 -9.25653,-10.11783 -5.82288,-1.2e-4 -9.35248,3.91442 -9.35263,10.11745 z" id="path8" sodipodi:nodetypes="cccccccccccccccccccsssccsccssccsccccccccccsssccccccssssscccccsscccsccsssccsssccssssccsccssccsccccccccccccccsssccsccssccsccsssccccccsssssccccccccccccccssccssccccccccssccsssc"/>
</g>
</svg>