<svg height="532" viewBox="0.132 0.132 30.957 6.377000000000001" width="2500" xmlns="http://www.w3.org/2000/svg"><path d="M8.784 1.64a.18.18 0 0 0-.185.186V5.45a4.36 4.36 0 0 1-.847.106c-.635 0-.846-.238-.846-.926V1.826c0-.106-.08-.186-.16-.186h-.952v2.99c0 1.403.741 1.852 1.932 1.852.952 0 1.905-.264 1.984-.29V1.64zm14.579 4.79c.08 0 .185-.08.185-.186V2.593a4.36 4.36 0 0 1 .847-.106c.635 0 .846.238.846.926v2.831c0 .106.08.185.159.185h.953V3.413c0-1.402-.741-1.852-1.932-1.852-.952 0-1.905.265-1.984.291V6.43zm-3.81-4.869c-1.244 0-2.011.662-2.011 2.117v.714c0 1.588.847 2.117 1.746 2.117.45 0 .926-.318 1.058-.503v.291c0 .08.08.159.16.159h.952v-4.63c.026 0-.9-.265-1.905-.265zm.82 3.704c-.212.185-.37.291-.82.291-.635.027-.9-.37-.9-1.19v-.662c0-.926.344-1.19.9-1.19.45 0 .714.026.82.052zm8.784-3.704c-1.243 0-2.01.662-2.01 2.117v.714c0 1.588.846 2.117 1.772 2.117.45 0 .926-.318 1.058-.503v.291c0 .08.08.159.159.159h.953v-4.63s-.926-.265-1.932-.265zm.82 3.704c-.211.185-.37.291-.82.291-.635 0-.9-.37-.9-1.19v-.662c0-.952.344-1.19.9-1.19.45 0 .714.026.82.052zM.132 6.43h1.006a.17.17 0 0 0 .158-.158V3.625H3.15c.317 0 .529.238.529.503V6.27c0 .079.08.158.158.158h1.006V.132H3.836a.17.17 0 0 0-.158.159v2.381H1.773a.446.446 0 0 1-.45-.45V.292c-.027-.053-.08-.159-.185-.159H.132zm14.896-4.868c-.529 0-1.032.212-1.27.37-.344-.264-.82-.37-1.402-.37-.873 0-1.614.265-1.72.318v4.577h.953c.106 0 .159-.08.159-.185V2.593c.238-.053.423-.08.582-.08.661 0 .82.265.82.927v2.83c0 .08.053.186.159.186h.793c.106 0 .159-.08.159-.185V2.725c.185-.132.423-.211.662-.211.502 0 .714.238.714.846v2.91c0 .08.053.186.159.186h.952V3.2c.027-1.217-.74-1.64-1.72-1.64z" fill="#4e8416" stroke-width=".265"/></svg>