<svg xmlns="http://www.w3.org/2000/svg" viewBox="0 0 220 64" role="img" aria-labelledby="title">
  <title id="title">Aetna</title>
  <path fill="#7D3F98" d="M38.7 15.4c-8.2 0-14.5 5.3-14.5 15.9 0 10.7 6.2 16.3 14.7 16.3 5.2 0 9.5-2.1 12.1-5.7v4.8h9.1V16.2h-9.1v4.7c-2.6-3.5-6.9-5.5-12.3-5.5Zm2.3 8.1c6.1 0 10.2 3.7 10.2 8.1 0 4.6-4.1 8.2-10.2 8.2-5.7 0-9.5-3.4-9.5-8.3 0-4.8 3.8-8 9.5-8Zm41.7-8.1c-10 0-17.2 6.3-17.2 16.1 0 9.7 7.1 16.1 17.6 16.1 7.3 0 12.6-3 15.6-8.1l-7.2-3.5c-1.8 2.6-4.4 4-8.1 4-5.1 0-8.6-2.3-9.4-6.1h25.8c.2-1 .3-2 .3-3.1 0-9.2-6.9-15.4-17.4-15.4Zm-.1 7.4c4.5 0 7.5 2 8.4 5.5H74.2c1.1-3.4 4.1-5.5 8.4-5.5Zm35.2-14.1h-9.2v7.5h-6.5v7.6h6.5v11.7c0 7.8 4.1 11.7 12.2 11.7 2.7 0 5.2-.4 7.4-1.2v-7.5c-1.5.5-3.1.8-4.8.8-3.8 0-5.6-1.6-5.6-5V23.8h10.2v-7.6h-10.2V8.7Zm34.4 6.7c-4.7 0-8.5 1.8-10.9 5.3v-4.5h-9.1v30.5h9.1V30.1c0-4.2 3.1-6.9 7.7-6.9 4.9 0 7.5 2.5 7.5 7v16.5h9.2V28.1c0-8.1-5.2-12.7-13.5-12.7Zm34.1 0c-8.2 0-14.5 5.3-14.5 15.9 0 10.7 6.2 16.3 14.7 16.3 5.2 0 9.5-2.1 12.1-5.7v4.8h9.1V16.2h-9.1v4.7c-2.6-3.5-6.9-5.5-12.3-5.5Zm2.3 8.1c6.1 0 10.2 3.7 10.2 8.1 0 4.6-4.1 8.2-10.2 8.2-5.7 0-9.5-3.4-9.5-8.3 0-4.8 3.8-8 9.5-8Z"/>
</svg>
